<svg width="60" height="60" viewBox="0 0 60 60" fill="none" xmlns="http://www.w3.org/2000/svg">
  <!-- Soft circles in the background -->
  <circle cx="30" cy="30" r="20" fill="rgba(147, 197, 253, 0.1)" />
  <circle cx="0" cy="0" r="15" fill="rgba(167, 243, 208, 0.1)" />
  <circle cx="60" cy="60" r="15" fill="rgba(253, 164, 175, 0.1)" />
  
  <!-- Sumikko-style simple shapes -->
  <path d="M15 20C15 22.7614 12.7614 25 10 25C7.23858 25 5 22.7614 5 20C5 17.2386 7.23858 15 10 15C12.7614 15 15 17.2386 15 20Z" fill="rgba(147, 197, 253, 0.2)" />
  <path d="M55 40C55 42.7614 52.7614 45 50 45C47.2386 45 45 42.7614 45 40C45 37.2386 47.2386 35 50 35C52.7614 35 55 37.2386 55 40Z" fill="rgba(167, 243, 208, 0.2)" />
  <path d="M35 50C35 52.7614 32.7614 55 30 55C27.2386 55 25 52.7614 25 50C25 47.2386 27.2386 45 30 45C32.7614 45 35 47.2386 35 50Z" fill="rgba(253, 164, 175, 0.2)" />
  
  <!-- Simple star shapes -->
  <path d="M40 15L42 19L46 20L43 23L44 27L40 25L36 27L37 23L34 20L38 19L40 15Z" fill="rgba(147, 197, 253, 0.2)" />
  <path d="M20 35L22 39L26 40L23 43L24 47L20 45L16 47L17 43L14 40L18 39L20 35Z" fill="rgba(167, 243, 208, 0.2)" />
</svg> 